<?xml version="1.0" encoding="UTF-8" standalone="no"?>

<svg width="100%" height="100%" viewBox="0 0 360 195" version="1.1" xmlns="http://www.w3.org/2000/svg" xmlns:xlink="http://www.w3.org/1999/xlink" xml:space="preserve" xmlns:serif="http://www.serif.com/" style="fill-rule:evenodd;clip-rule:evenodd;stroke-linecap:round;stroke-miterlimit:10;">
    <g transform="matrix(1,0,0,1,-619.615417,-1314.019583)">
        <g transform="matrix(4.166667,0,0,4.166667,0,0)">
            <g transform="matrix(1,0,0,1,1.68,-3.12)">
                <g transform="matrix(1,0,0,1,0,4.08)">
                    <g transform="matrix(-1,0,0,1,457.719,283.663)">
                        <rect x="224.345" y="30.75" width="9.029" height="44.364" style="fill:white;"></rect>
                    </g>
                    <g transform="matrix(1,0,0,1,209.4527,358.8057)">
                        <path d="M0,-44.401C-6.577,-44.401 -13.155,-44.338 -19.734,-44.338L-19.734,-8.224L-35.039,-44.369L-43.65,-44.369L-62.425,-0.031L-53.876,-0.031L-39.344,-35.06L-24.874,-0.031L-19.734,-0.031L-19.734,0L-11.84,0L-11.84,-36.421L0,-36.421C10.046,-36.421 10.106,-20.712 0,-20.712L-3.947,-20.712L-3.947,-13.048L0,-13.048C20.51,-13.048 20.451,-44.401 0,-44.401" style="fill:white;fill-rule:nonzero;"></path>
                    </g>
                    <g transform="matrix(-1,0,0,1,163.9881,346.1377)">
                        <path d="M-11.688,0L0,0" style="fill:none;fill-rule:nonzero;stroke:white;stroke-width:1.82px;"></path>
                    </g>
                </g>
                <g transform="matrix(0,1,1,0,175.6763,350.2179)">
                    <path d="M-5.844,-5.844L5.844,-5.844" style="fill:none;fill-rule:nonzero;stroke:white;stroke-width:1.82px;"></path>
                </g>
            </g>
        </g>
    </g>
</svg>