<svg xmlns="http://www.w3.org/2000/svg" viewBox="0 0 32 32" aria-hidden="true">
  <circle cx="16" cy="16" r="16" fill="#ffffff" />
  <g fill="#273B6E" transform="translate(3 9.316) scale(0.156415)">
    <rect x="148.84" y="0.02" width="17.38" height="85.4" />
    <path
      d="M120.17,0c-12.66,0-25.32.12-38,.12V69.64L52.72.06H36.15L0,85.42H16.46L44.43,18,72.29,85.42h9.9v.06H97.38V15.36h22.79c19.34,0,19.46,30.24,0,30.24h-7.59V60.36h7.59C159.66,60.36,159.55,0,120.17,0Z"
    />
  </g>
  <g
    transform="translate(3 9.316) scale(0.156415)"
    fill="none"
    stroke="#78BC43"
    stroke-linecap="round"
    stroke-miterlimit="10"
    stroke-width="3.5"
  >
    <line x1="43.9" y1="49.84" x2="43.9" y2="72.34" />
    <line x1="55.15" y1="61.09" x2="32.65" y2="61.09" />
  </g>
</svg>
